#!OML:ASF E:\Mandelcareful walks\Project 1\Capture day 1\Session 1\Subject1.ASF
:FULLY-SPECIFIED
:DEGREES
440
root 5.66306 16.9907 -1.42529 -85.512 -86.5964 88.3465
lowerback -0.747387 0.382059 -4.06492
upperback 3.6308 0.566314 0.611518
thorax 4.12316 0.115305 2.934
lowerneck -18.9231 5.15426 -0.189522
upperneck 46.0075 5.37406 1.29653
head 22.4691 1.40068 1.73661
rclavicle -1.68967e-015 3.97569e-016
rhumerus -25.4951 -6.14862 -82.1963
rradius 26.9902
rwrist -6.49218
rhand -8.5184 -31.7182
rfingers 7.12502
rthumb 17.41 -60.9585
lclavicle -1.68967e-015 3.97569e-016
lhumerus -24.3245 0.783583 90.3253
lradius 23.3779
lwrist 5.55885
lhand -19.7823 -13.1055
lfingers 7.12502
lthumb 6.55003 16.7732
rfemur -1.82661 -5.29218 12.5888
rtibia 12.7594
rfoot -13.1637 -19.8382
rtoes 3.03989
lfemur -5.99355 -1.29432 -15.959
ltibia 19.9594
lfoot -15.2996 15.6473
ltoes 0.706239
441
root 5.65581 16.9958 -1.44224 -82.9685 -86.7079 85.8181
lowerback -1.03961 0.344533 -3.81366
upperback 3.73652 0.519606 0.667597
thorax 4.4037 0.0915066 2.85234
lowerneck -19.0658 5.20979 -0.0682615
upperneck 46.0269 5.51556 1.11037
head 22.5618 1.4488 1.65425
rclavicle -2.68359e-015 3.57812e-015
rhumerus -25.3608 -6.42636 -82.0533
rradius 26.8516
rwrist -6.27384
rhand -8.41761 -31.4554
rfingers 7.12502
rthumb 17.507 -60.6871
lclavicle -2.68359e-015 3.57812e-015
lhumerus -24.1973 0.776685 90.4102
lradius 23.4661
lwrist 5.68904
lhand -19.6205 -12.8854
lfingers 7.12502
lthumb 6.70617 16.9884
rfemur -1.73022 -5.67612 12.7393
rtibia 12.6375
rfoot -13.0268 -19.6594
rtoes 2.52522
lfemur -5.97091 -1.44582 -15.779
ltibia 19.8954
lfoot -15.2565 15.6841
ltoes 0.485269
442
root 5.68093 17.0012 -1.46924 -82.5461 -86.6666 85.4658
lowerback -0.909499 0.331575 -3.8535
upperback 3.70389 0.497427 0.677711
thorax 4.2972 0.0817048 2.8828
lowerneck -19.103 5.30883 0.0611597
upperneck 46.0479 5.68019 0.995875
head 22.6102 1.51637 1.60976
rclavicle -5.96354e-016 1.19271e-015
rhumerus -25.2028 -6.44458 -82.0492
rradius 26.7289
rwrist -6.17153
rhand -8.71 -30.9945
rfingers 7.12502
rthumb 17.2256 -60.2511
lclavicle -5.96354e-016 1.19271e-015
lhumerus -24.1526 0.852204 90.4197
lradius 23.6162
lwrist 5.54542
lhand -19.7222 -12.7407
lfingers 7.12502
lthumb 6.60798 17.1362
rfemur -1.83717 -5.29181 12.8717
rtibia 12.4689
rfoot -13.0046 -20.0432
rtoes 2.96964
lfemur -6.19399 -1.49344 -15.6966
ltibia 19.8899
lfoot -15.0603 15.7759
ltoes 0.29956
443
root 5.69361 17.0009 -1.49022 -81.7331 -86.6615 84.618
lowerback -0.704242 0.357781 -3.72614
upperback 3.5632 0.521309 0.650461
thorax 4.03243 0.10724 2.7813
lowerneck -18.7561 5.37494 0.33612
upperneck 46.0229 5.76711 0.753736
head 22.4919 1.57027 1.43208
rclavicle -2.98177e-015 4.37326e-015
rhumerus -25.4293 -6.57108 -81.9764
rradius 26.7495
rwrist -6.05734
rhand -8.77648 -30.5647
rfingers 7.12502
rthumb 17.1616 -59.8268
lclavicle -2.98177e-015 4.37326e-015
lhumerus -24.3639 0.413119 90.5081
lradius 23.7142
lwrist 5.70124
lhand -19.9451 -12.5941
lfingers 7.12502
lthumb 6.39281 17.2895
rfemur -1.81459 -5.2602 12.9662
rtibia 12.4289
rfoot -13.0478 -20.0939
rtoes 3.35596
lfemur -6.22087 -1.4226 -15.6148
ltibia 19.8943
lfoot -14.8817 15.7175
ltoes -0.278214
444
root 5.69632 16.9959 -1.50803 -80.9022 -86.7217 83.7166
lowerback -0.490535 0.373282 -3.58234
upperback 3.35647 0.530324 0.651385
thorax 3.69585 0.127866 2.69865
lowerneck -18.4629 5.37371 0.428503
upperneck 46.1743 5.61355 0.891997
head 22.5098 1.5384 1.44289
rclavicle 2.98177e-015 -7.55382e-015
rhumerus -25.8666 -6.74251 -81.8792
rradius 26.734
rwrist -5.80175
rhand -8.663 -30.2394
rfingers 7.12502
rthumb 17.2708 -59.492
lclavicle 2.98177e-015 -7.55382e-015
lhumerus -24.8293 -0.124907 90.6314
lradius 23.9009
lwrist 6.29325
lhand -20.0568 -12.5214
lfingers 7.12502
lthumb 6.28499 17.3653
rfemur -1.80721 -5.4487 13.0816
rtibia 12.5756
rfoot -13.0691 -19.9399
rtoes 3.23743
lfemur -6.12784 -1.32566 -15.4871
ltibia 19.8804
lfoot -14.796 15.6114
ltoes -0.700872
445
root 5.70105 16.9916 -1.52701 -79.8128 -86.7382 82.5585
lowerback -0.342762 0.362467 -3.57237
upperback 3.24162 0.508432 0.709317
thorax 3.49413 0.122825 2.75026
lowerneck -18.3825 5.33934 0.262258
upperneck 46.2917 5.47164 1.16953
head 22.5508 1.48398 1.58973
rclavicle -1.59028e-015 -3.97569e-015
rhumerus -26.0683 -6.63795 -81.8043
rradius 26.6936
rwrist -5.79106
rhand -8.85046 -30.173
rfingers 7.12502
rthumb 17.0904 -59.4413
lclavicle -1.59028e-015 -3.97569e-015
lhumerus -25.1636 -0.0115367 90.7258
lradius 24.0732
lwrist 6.42409
lhand -20.0053 -12.5567
lfingers 7.12502
lthumb 6.33468 17.3286
rfemur -1.82874 -5.57595 13.1639
rtibia 12.7389
rfoot -13.0746 -19.8659
rtoes 3.19438
lfemur -6.03814 -1.35579 -15.3972
ltibia 19.8444
lfoot -14.7845 15.5999
ltoes -0.873371
446
root 5.70952 16.989 -1.54379 -77.9168 -86.5837 80.6018
lowerback -0.357291 0.324251 -3.65118
upperback 3.29271 0.459071 0.722663
thorax 3.55882 0.0931526 2.80715
lowerneck -18.3816 5.31537 0.171461
upperneck 46.296 5.45381 1.20682
head 22.5451 1.46618 1.62316
rclavicle 2.98177e-015 1.59028e-015
rhumerus -25.9841 -6.35075 -81.7959
rradius 26.7412
rwrist -6.09863
rhand -9.03187 -30.6863
rfingers 7.12502
rthumb 16.9158 -59.9697
lclavicle 2.98177e-015 1.59028e-015
lhumerus -25.0396 0.152517 90.7968
lradius 23.9486
lwrist 6.38937
lhand -19.9371 -12.7464
lfingers 7.12502
lthumb 6.40057 17.1369
rfemur -1.87092 -5.71613 13.071
rtibia 12.9332
rfoot -13.1999 -19.8298
rtoes 3.33653
lfemur -5.96386 -1.47651 -15.4812
ltibia 19.7347
lfoot -14.7122 15.6041
ltoes -0.910977
